<svg width="56" height="56" viewBox="0 0 56 56" fill="black" xmlns="http://www.w3.org/2000/svg">
<path fill-rule="evenodd" clip-rule="evenodd" d="M23.8389 17.9107C23.8256 17.9526 23.8209 17.9968 23.8251 18.0406L23.1667 18.5722C23.1064 18.6202 23.0457 18.6677 22.985 18.7153C22.9242 18.7629 22.8635 18.8105 22.8032 18.8585C22.7772 18.876 22.7526 18.8955 22.7295 18.9168C22.6988 18.9489 22.6695 18.9833 22.6401 19.018C22.5954 19.0705 22.5504 19.1234 22.5 19.1689C22.3142 19.3245 22.1395 19.4935 21.9773 19.6747C21.9319 19.7269 21.8807 19.7735 21.8248 19.8136C21.643 19.9364 21.4784 20.0841 21.3357 20.2525C21.3245 20.271 21.309 20.2863 21.2906 20.2971C21.2721 20.3079 21.2514 20.3138 21.2301 20.3142C21.205 20.208 21.1904 20.0994 21.1866 19.9902C21.191 19.8273 21.1541 19.666 21.0794 19.5221C21.0593 19.4675 21.0198 19.4228 20.9688 19.3969C20.9052 19.3665 20.8539 19.3146 20.8233 19.2499C20.7928 19.1853 20.785 19.1118 20.8013 19.042C20.8312 18.9222 20.8403 18.798 20.8281 18.675C20.8256 18.589 20.8042 18.5046 20.7653 18.4283C20.7264 18.352 20.6711 18.2857 20.6036 18.2344C20.5879 18.2344 20.571 18.2369 20.5541 18.2393C20.5202 18.2443 20.4863 18.2492 20.4629 18.2344C20.404 18.1943 20.3359 18.1707 20.2654 18.1659C20.1949 18.1611 20.1243 18.1753 20.0608 18.207C20.03 18.2141 19.9985 18.2176 19.967 18.2172C19.931 18.222 19.8956 18.2306 19.8614 18.243C19.8006 18.2683 19.7406 18.2952 19.6782 18.3232C19.6478 18.3368 19.6169 18.3507 19.585 18.3647C19.577 18.3461 19.5691 18.3288 19.5613 18.3121C19.5513 18.2903 19.5416 18.2695 19.5331 18.2481C19.52 18.2078 19.4945 18.1729 19.4603 18.1488C19.4262 18.1247 19.3853 18.1126 19.3438 18.1144C19.258 18.1156 19.1733 18.1336 19.0942 18.1675C18.9944 18.2223 18.8981 18.2836 18.806 18.351L18.5564 18.5087C18.5369 18.4936 18.5201 18.477 18.5048 18.4618C18.4766 18.434 18.4534 18.411 18.4274 18.411C18.365 18.3974 18.3001 18.401 18.2394 18.4215C18.1788 18.442 18.1246 18.4786 18.0823 18.5276C18.0473 18.5713 18.0065 18.6106 17.9624 18.6532C17.939 18.6758 17.9146 18.6992 17.8897 18.7248C17.886 18.6736 17.8816 18.6244 17.8774 18.5764C17.8682 18.4716 17.8595 18.3732 17.8595 18.2755C17.8586 18.2477 17.8644 18.22 17.8763 18.195C17.894 18.1598 17.9047 18.1214 17.9079 18.082C17.9111 18.0425 17.9066 18.0028 17.8947 17.9652C17.875 17.9094 17.8599 17.8521 17.8495 17.7937C17.8431 17.7218 17.8137 17.6541 17.7658 17.6011C17.7179 17.5481 17.6543 17.5127 17.5848 17.5005C17.5493 17.4916 17.5176 17.471 17.4946 17.4419C17.4716 17.4128 17.4586 17.3768 17.4574 17.3394C17.4517 17.2616 17.4411 17.1842 17.4256 17.1079C17.4123 17.066 17.4104 17.0212 17.4201 16.9783C17.4299 16.9353 17.4509 16.896 17.4809 16.8644C17.5235 16.8199 17.5512 16.7627 17.56 16.7011C17.5687 16.6394 17.558 16.5765 17.5295 16.5215C17.4772 16.4461 17.4396 16.3611 17.4189 16.2711C17.4098 16.1373 17.4188 16.0029 17.4457 15.8716C17.4757 15.7368 17.5137 15.6039 17.5596 15.4738C17.5719 15.4347 17.5863 15.3959 17.6008 15.357C17.6199 15.3055 17.6391 15.2539 17.6534 15.2012C17.6951 15.0035 17.7693 14.8145 17.8729 14.6422C18.0643 14.3507 18.2259 14.0399 18.3554 13.7146C18.4016 13.6117 18.4515 13.5088 18.5013 13.406C18.5346 13.3374 18.5678 13.2688 18.6 13.2002C18.633 13.1343 18.6583 13.0647 18.6754 12.9928C18.6988 12.8813 18.6569 12.8367 18.543 12.8453C18.4951 12.85 18.4471 12.8594 18.3997 12.8688C18.3776 12.8731 18.3555 12.8775 18.3336 12.8813C18.2994 12.6563 18.2369 12.4367 18.1477 12.228C18.1236 12.1664 18.0773 12.1166 18.0183 12.0892C17.9593 12.0617 17.8922 12.0586 17.831 12.0806C17.7961 12.0912 17.7602 12.0977 17.7163 12.1056C17.7033 12.1079 17.6897 12.1104 17.6752 12.1131C17.6808 12.0966 17.6855 12.0823 17.6896 12.0695C17.6979 12.044 17.7043 12.0246 17.7121 12.0051L17.7123 12.0045C17.7759 11.8418 17.8395 11.6792 17.9047 11.5182C17.9265 11.4633 17.9198 11.4136 17.8662 11.3913C17.8126 11.369 17.7607 11.3587 17.7255 11.4256C17.7075 11.4633 17.6856 11.499 17.6601 11.5319C17.6528 11.5405 17.6451 11.5503 17.6372 11.5603C17.6075 11.5982 17.5747 11.6399 17.5429 11.6399C17.4822 11.6426 17.4568 11.6772 17.4308 11.7127C17.4238 11.7223 17.4167 11.732 17.4089 11.7411C17.3668 11.7996 17.3172 11.8521 17.2614 11.8971C17.223 11.9183 17.1941 11.9539 17.181 11.9966C17.1734 12.0473 17.1557 12.0959 17.1289 12.1393C17.1021 12.1826 17.0668 12.2199 17.0252 12.2486C16.9998 12.2686 16.982 12.2971 16.975 12.3292C16.9599 12.3823 16.9465 12.4359 16.9331 12.4895C16.9197 12.5431 16.9063 12.5967 16.8912 12.6498C16.8298 12.8682 16.7672 13.0853 16.7036 13.3014C16.6717 13.4111 16.6366 13.5209 16.6014 13.6306C16.5888 13.7105 16.5832 13.7914 16.5846 13.8724C16.5666 13.9995 16.5131 14.1186 16.4305 14.2153C16.4236 14.19 16.4185 14.1642 16.4154 14.1381C16.4138 14.0667 16.4117 13.9918 16.4095 13.9163C16.405 13.7563 16.4004 13.5932 16.4004 13.4523C16.4004 13.3488 16.4029 13.2448 16.4054 13.1406C16.4079 13.036 16.4104 12.9312 16.4104 12.8264C16.4104 12.7659 16.4059 12.7048 16.4014 12.6438C16.3949 12.556 16.3884 12.4683 16.3953 12.3823C16.4067 12.2252 16.3976 12.0672 16.3685 11.9125C16.3613 11.8556 16.3613 11.798 16.3685 11.7411C16.3815 11.6405 16.377 11.5383 16.3551 11.4393C16.3395 11.3522 16.3339 11.2636 16.3384 11.1752C16.3384 11.1146 16.3387 11.0524 16.3391 10.9903C16.3399 10.8663 16.3406 10.7425 16.3384 10.6317C16.335 10.4654 16.3317 10.3025 16.3166 10.131C16.3048 9.99614 16.2882 9.86055 16.2717 9.72516C16.2623 9.64886 16.253 9.57263 16.2446 9.49661C16.2146 9.2995 16.1951 9.10089 16.1859 8.90164C16.1849 8.72467 16.1944 8.5477 16.2039 8.37072C16.21 8.25621 16.2161 8.14169 16.2194 8.02717V7.43048C16.2168 7.40277 16.2123 7.37527 16.206 7.34818C16.1414 7.00944 16.1139 6.66438 16.1239 6.3194C16.1398 6.12061 16.1359 5.92068 16.1122 5.72271C16.0823 5.46956 16.0695 5.21379 16.0567 4.95852C16.0516 4.85588 16.0464 4.75333 16.0402 4.65106C16.0393 4.61826 16.0359 4.58559 16.0301 4.55332C16.0201 4.50874 15.9966 4.48645 15.9346 4.50874C15.9239 4.5883 15.9183 4.66849 15.9179 4.74879C15.9318 5.01506 15.9485 5.28035 15.9653 5.5454C15.9707 5.63195 15.9762 5.71848 15.9815 5.80501C15.9965 5.90542 15.9998 6.00728 15.9916 6.1085C15.9575 6.31944 15.9541 6.53439 15.9815 6.74634C15.9911 6.8278 16.0038 6.90868 16.0165 6.98945C16.0348 7.10592 16.0531 7.22216 16.062 7.3396C16.0798 7.71421 16.0697 8.08966 16.0318 8.46269C16.0236 8.71614 16.0314 8.96986 16.0553 9.22227C16.0625 9.35757 16.0861 9.49089 16.1096 9.62451C16.1351 9.7686 16.1606 9.91305 16.1658 10.0607C16.1681 10.126 16.1705 10.1913 16.1728 10.2565C16.1844 10.5765 16.196 10.8956 16.196 11.2147C16.196 11.2394 16.1995 11.2661 16.2031 11.2939C16.207 11.3238 16.2111 11.355 16.2111 11.3861C16.2203 11.4441 16.2134 11.5035 16.191 11.5576C16.1675 11.5916 16.1526 11.631 16.1476 11.6722C16.1427 11.7135 16.1478 11.7554 16.1625 11.7942C16.1866 11.864 16.2051 11.9357 16.2178 12.0086C16.2356 12.2497 16.2485 12.4909 16.2563 12.7321C16.2647 12.8882 16.2613 13.0442 16.2563 13.2019C16.2545 13.2595 16.2517 13.3168 16.249 13.3741C16.2443 13.4738 16.2395 13.5733 16.2395 13.6735C16.241 13.8152 16.2447 13.9572 16.2484 14.0993C16.2532 14.2821 16.258 14.465 16.258 14.6474C16.2384 14.8463 16.2503 15.0472 16.2931 15.2424C16.2941 15.2551 16.2921 15.2679 16.2875 15.2798C16.2829 15.2917 16.2756 15.3024 16.2663 15.3109C16.2563 15.3264 16.2228 15.3212 16.206 15.3109C16.1705 15.2903 16.14 15.2616 16.1168 15.2272C16.0936 15.1927 16.0783 15.1534 16.072 15.112C16.0709 15.1022 16.0698 15.0924 16.0687 15.0826C16.0546 14.9565 16.0402 14.8278 16.0402 14.7005C16.0352 14.6199 16.0234 14.5908 15.9531 14.5891C15.8827 14.5874 15.8458 14.6234 15.8458 14.7022C15.8472 14.7673 15.854 14.8321 15.866 14.896C15.8827 15.0006 15.9045 15.1052 15.9263 15.2098C15.934 15.2695 15.9544 15.3268 15.9859 15.3778C16.0174 15.4287 16.0594 15.472 16.1089 15.5047C16.1376 15.518 16.163 15.538 16.183 15.5629C16.2031 15.5879 16.2173 15.6173 16.2245 15.6487C16.2325 15.6997 16.2401 15.7508 16.2477 15.802C16.2624 15.9008 16.2772 15.9997 16.2948 16.098C16.3163 16.2244 16.365 16.3445 16.4372 16.4495C16.4567 16.4747 16.4689 16.505 16.4724 16.5369C16.4743 16.6051 16.4902 16.672 16.519 16.7335C16.5479 16.7949 16.5891 16.8495 16.6399 16.8935C16.6824 16.9338 16.7157 16.983 16.7377 17.0378C16.7597 17.0926 16.7698 17.1516 16.7672 17.2108C16.768 17.2618 16.7714 17.3127 16.7773 17.3634C16.7931 17.4632 16.8099 17.5631 16.8275 17.6682C16.8341 17.7075 16.8408 17.7475 16.8477 17.7886C16.7674 17.8758 16.7672 17.8777 16.7531 18.0284L16.7522 18.0389C16.7455 18.0706 16.7404 18.1027 16.7371 18.1349C16.7268 18.2131 16.7369 18.2926 16.7663 18.3655C16.7957 18.4383 16.8434 18.502 16.9046 18.5499C17.0252 18.6305 17.0286 18.6442 16.9951 18.7882C16.9804 18.8506 16.9719 18.9144 16.9699 18.9785C16.9691 19.0128 16.9728 19.0466 16.9766 19.0804C16.98 19.1109 16.9833 19.1414 16.9833 19.1723C16.9967 19.3352 16.9967 19.4964 16.9967 19.6593C17.0068 19.7707 17.0068 19.8873 17.0068 20.0021C17.0105 20.1124 17.0026 20.2228 16.9833 20.3314C16.9511 20.4408 16.9067 20.5461 16.851 20.6452C16.8177 20.7164 16.7827 20.7869 16.7477 20.8574C16.7069 20.9395 16.6661 21.0216 16.6282 21.1047C16.5589 21.213 16.511 21.3341 16.4875 21.4613C16.4165 21.5185 16.4045 21.602 16.3932 21.6811C16.3882 21.7159 16.3833 21.7498 16.3736 21.7803C16.3576 21.83 16.3409 21.8797 16.3241 21.9295C16.3074 21.9792 16.2906 22.0289 16.2747 22.0786C16.2404 22.1839 16.2069 22.2915 16.1742 22.3967C16.159 22.4457 16.1439 22.4941 16.129 22.5415C16.1055 22.6161 16.0812 22.6903 16.0569 22.7645C16.0326 22.8386 16.0083 22.9128 15.9849 22.9874C15.9698 23.0336 15.9576 23.0799 15.9453 23.1262C15.9412 23.1416 15.9372 23.1571 15.933 23.1725C15.9305 23.1825 15.9275 23.1926 15.9245 23.2029C15.9171 23.2278 15.9095 23.2533 15.9095 23.2788C15.9039 23.3078 15.8989 23.3367 15.894 23.3656C15.8857 23.4139 15.8775 23.4621 15.866 23.5103C15.8454 23.5985 15.8232 23.6855 15.8009 23.773C15.7833 23.8421 15.7657 23.9115 15.7487 23.9818C15.7102 24.1413 15.675 24.3128 15.6398 24.4842C15.6318 24.5232 15.6237 24.5609 15.6157 24.5981C15.5885 24.7246 15.5624 24.8463 15.5443 24.9986C15.5208 25.1958 15.5074 25.3947 15.5074 25.5936C15.5074 25.6873 15.5056 25.7811 15.5037 25.8751C15.5 26.0631 15.4963 26.2514 15.5074 26.4389C15.5065 26.6702 15.534 26.9006 15.5895 27.1248C15.6268 27.2411 15.6482 27.3625 15.6697 27.4841C15.686 27.5758 15.7022 27.6676 15.7252 27.7575C15.7846 27.9867 15.8509 28.2142 15.9172 28.4418C15.9427 28.5291 15.9682 28.6165 15.9933 28.7039C16.0841 28.9563 16.1962 29.2002 16.3283 29.4327C16.3605 29.5281 16.4021 29.6201 16.4523 29.707C16.5067 29.7748 16.5531 29.8474 16.5994 29.9198C16.6572 30.0102 16.7148 30.1002 16.7873 30.1802C16.8896 30.2593 16.96 30.374 16.985 30.5026C16.9862 30.5167 17.0071 30.5317 17.0261 30.5452C17.0347 30.5514 17.0429 30.5572 17.0487 30.5626C17.0557 30.5692 17.0645 30.5747 17.0732 30.5802C17.0873 30.5891 17.1011 30.5979 17.1073 30.6106C17.1532 30.6988 17.1975 30.788 17.2417 30.8771C17.2749 30.944 17.3081 31.0108 17.3419 31.077C17.3728 31.1583 17.4169 31.2337 17.4725 31.2999C17.5613 31.3921 17.6379 31.4959 17.7004 31.6085C17.71 31.6231 17.7194 31.6379 17.7287 31.6528C17.7845 31.7411 17.8403 31.8295 17.955 31.8589C17.9848 31.8635 18.0117 31.88 18.0298 31.9046C18.048 31.9293 18.056 31.9603 18.0522 31.9909C18.0404 32.0749 18.094 32.1178 18.156 32.1624C18.2801 32.2414 18.4221 32.2863 18.5681 32.2927C18.5851 32.2931 18.6019 32.2969 18.6174 32.304C18.6329 32.3111 18.6469 32.3212 18.6586 32.3338C18.7057 32.3921 18.7416 32.459 18.7641 32.531C18.783 32.6611 18.8193 32.7864 18.8555 32.9113C18.8837 33.0086 18.9119 33.1058 18.9317 33.2049C18.9935 33.5039 19.0832 33.7962 19.1997 34.0776C19.2259 34.1564 19.2669 34.2292 19.3203 34.2919C19.485 34.4869 19.6797 34.6531 19.8966 34.784C19.9285 34.802 19.9569 34.8259 19.9804 34.8543C20.1049 35.0239 20.2169 35.2027 20.3154 35.3893C20.4112 35.5191 20.4807 35.6672 20.5198 35.8248C20.5341 35.8687 20.564 35.9054 20.6036 35.9277C20.6272 35.9413 20.6471 35.9609 20.6612 35.9846C20.6753 36.0083 20.6831 36.0354 20.684 36.0632C20.7172 36.1936 20.7229 36.3298 20.7007 36.4627C20.6947 36.4851 20.6947 36.5088 20.7007 36.5312C20.7151 36.5856 20.7289 36.6398 20.7427 36.6936C20.7882 36.8721 20.8329 37.0471 20.8934 37.2171C20.9641 37.3977 21.0016 37.5901 21.004 37.7846C21.0043 37.8546 21.0088 37.9244 21.0174 37.9938C21.0357 38.1777 21.0642 38.3603 21.1028 38.5408C21.1268 38.626 21.1203 38.7172 21.0844 38.798C21.0311 38.9035 21.0151 39.0247 21.0391 39.1409C21.0435 39.21 21.0435 39.2793 21.0391 39.3484C21.0352 39.4004 21.0284 39.4521 21.0216 39.5038C21.0111 39.5833 21.0006 39.6627 21.0006 39.7428C21.0006 39.836 21.0075 39.9262 21.0144 40.0149C21.0209 40.1006 21.0274 40.1849 21.0274 40.2691C21.0238 40.4172 21.0542 40.564 21.1162 40.6978C21.1173 40.7069 21.1173 40.7161 21.1162 40.7252C21.1392 40.8427 21.169 40.9588 21.1989 41.075C21.2561 41.2978 21.3135 41.5207 21.3223 41.754V41.7677C21.3393 41.9386 21.3461 42.1104 21.3424 42.2821C21.3224 42.5615 21.2857 42.8379 21.2488 43.1154C21.2453 43.1411 21.2419 43.1669 21.2385 43.1926C21.2257 43.2867 21.2081 43.3793 21.1905 43.4719C21.1805 43.5245 21.1705 43.577 21.1614 43.6298C21.1351 43.7272 21.1194 43.8273 21.1145 43.9282C21.1041 44.2061 21.0705 44.4826 21.014 44.7546C21.0036 44.841 20.9773 44.9277 20.9514 45.0135C20.9232 45.1067 20.8953 45.1987 20.8884 45.2879C20.8828 45.3597 20.8577 45.4282 20.8324 45.4976C20.7973 45.5938 20.7615 45.6917 20.7761 45.8023C20.7849 45.8728 20.7572 45.9368 20.7295 46.0008C20.7147 46.0349 20.7 46.0689 20.6907 46.104C20.6411 46.3486 20.6247 46.599 20.6421 46.8482C20.6421 46.9013 20.6496 46.9545 20.657 47.0077C20.6719 47.114 20.6868 47.2203 20.6421 47.3266C20.6391 47.34 20.6393 47.354 20.6425 47.3674C20.6457 47.3808 20.6518 47.3932 20.6605 47.4037C20.7072 47.4618 20.7332 47.5343 20.7342 47.6095C20.7524 47.7099 20.79 47.8055 20.8448 47.8907C20.8901 47.9668 20.9305 48.0457 20.9709 48.1247C20.9934 48.1686 21.0158 48.2125 21.0391 48.2559C21.0655 48.314 21.0993 48.3682 21.1397 48.4171C21.171 48.4402 21.1957 48.4715 21.2113 48.5077C21.2269 48.5438 21.2328 48.5836 21.2284 48.6228C21.2256 48.6456 21.2256 48.6687 21.2284 48.6914C21.2353 48.7627 21.2426 48.8341 21.2499 48.9056C21.2676 49.0784 21.2853 49.2519 21.2971 49.4253C21.3052 49.4838 21.3018 49.5428 21.2984 49.6018C21.2954 49.6534 21.2924 49.705 21.2971 49.7562C21.3049 49.9041 21.297 50.0524 21.2737 50.1986C21.2502 50.346 21.2502 50.4952 21.2502 50.6427C21.2498 50.6615 21.2509 50.6803 21.252 50.6991C21.2552 50.7537 21.2584 50.8077 21.2234 50.8587C21.2156 50.8803 21.2156 50.904 21.2234 50.9256C21.235 50.9933 21.2523 51.0599 21.2754 51.1245C21.3164 51.202 21.342 51.2871 21.3507 51.3748C21.352 51.3879 21.3591 51.394 21.3757 51.4083C21.381 51.4127 21.3871 51.418 21.3943 51.4246C21.4179 51.446 21.4425 51.4654 21.4665 51.4843C21.4732 51.4895 21.4799 51.4948 21.4864 51.5C21.6389 51.452 21.6473 51.4434 21.7193 51.3062C21.7338 51.2772 21.75 51.2492 21.7679 51.2222C21.8866 51.0354 21.9675 50.8261 22.0058 50.6067C22.0455 50.4175 22.0696 50.2273 22.0937 50.0369C22.1021 49.9703 22.1106 49.9035 22.1197 49.8368C22.1593 49.4568 22.3008 49.0954 22.5285 48.7926C22.6203 48.6906 22.6966 48.575 22.7546 48.4497C22.8174 48.3116 22.9075 48.1884 23.0193 48.0879C23.1735 47.9518 23.3133 47.7995 23.4364 47.6335C23.4927 47.5472 23.5359 47.4561 23.579 47.3652C23.5873 47.3477 23.5956 47.3303 23.604 47.3129C23.6386 47.2426 23.6745 47.173 23.7104 47.1035C23.8565 46.8205 24.0018 46.539 24.0596 46.2155C24.1175 45.9892 24.1082 45.7505 24.0328 45.5296C23.9568 45.372 23.8688 45.2207 23.7698 45.077C23.7455 45.0307 23.7158 44.9878 23.6861 44.945C23.6563 44.9021 23.6266 44.8592 23.6023 44.8129C23.544 44.6986 23.4941 44.58 23.4532 44.458C23.4126 44.3593 23.3882 44.2545 23.3812 44.1476C23.3777 43.9628 23.3945 43.7782 23.4314 43.5973C23.4504 43.4553 23.447 43.3112 23.4214 43.1703C23.4122 43.0651 23.4161 42.959 23.4331 42.8548C23.4442 42.7908 23.4674 42.7318 23.4908 42.6724C23.5238 42.5887 23.5571 42.5042 23.5571 42.4039C23.5595 42.3072 23.5696 42.2108 23.5872 42.1158C23.5916 42.0803 23.5975 42.0446 23.6033 42.0088C23.6153 41.9356 23.6274 41.862 23.6274 41.7883V41.3014C23.6274 41.2831 23.628 41.2648 23.6285 41.2465C23.6314 41.1495 23.6343 41.0532 23.5554 40.9739C23.5453 40.9581 23.54 40.9396 23.5403 40.9207C23.5375 40.897 23.5347 40.8733 23.5318 40.8496C23.5176 40.731 23.5034 40.6124 23.4951 40.4938C23.4904 40.3495 23.5258 40.2068 23.5973 40.0823C23.6499 39.9852 23.6808 39.8775 23.6877 39.7668C23.6973 39.659 23.6981 39.5507 23.6989 39.4424C23.6996 39.3612 23.7002 39.2801 23.7045 39.1992C23.7246 38.8014 23.7631 38.4002 23.8083 37.999C23.8331 37.7815 23.873 37.564 23.9127 37.3476C23.9187 37.3149 23.9247 37.2823 23.9306 37.2497C23.9537 37.127 23.9851 37.0061 24.0245 36.8879C24.0483 36.8177 24.0774 36.7489 24.1064 36.6801C24.1242 36.638 24.1419 36.5959 24.1585 36.5535C24.1701 36.5284 24.1741 36.5004 24.1702 36.4729C24.1418 36.2977 24.1498 36.1184 24.1937 35.9466C24.202 35.89 24.2079 35.8325 24.2138 35.7751C24.2196 35.7177 24.2255 35.6602 24.2339 35.6036C24.2383 35.5635 24.2515 35.5248 24.2724 35.4905C24.3101 35.4356 24.3495 35.382 24.3888 35.3284C24.4282 35.2748 24.4676 35.2213 24.5053 35.1664C24.5411 35.1197 24.5674 35.066 24.5823 35.0087C24.625 34.8339 24.722 34.678 24.8587 34.5646C25.0001 34.4364 25.1349 34.3007 25.2625 34.1582C25.2795 34.138 25.2951 34.1158 25.3108 34.0933C25.3552 34.0299 25.4007 33.965 25.4836 33.9421C25.4909 33.94 25.4963 33.9285 25.5017 33.9168C25.505 33.9098 25.5083 33.9027 25.5121 33.8976C25.525 33.8786 25.5378 33.8595 25.5506 33.8405C25.6095 33.7529 25.6686 33.6652 25.7332 33.5821C25.8859 33.4171 26.013 33.2292 26.1102 33.0248C26.1587 32.9207 26.2147 32.8204 26.2777 32.7248C26.3162 32.6553 26.3544 32.5858 26.3925 32.5163C26.4306 32.4469 26.4687 32.3775 26.5072 32.3081C26.5246 32.2788 26.5424 32.25 26.5602 32.2213C26.6007 32.1559 26.6409 32.0909 26.6747 32.0218C26.7006 31.9593 26.7393 31.9033 26.7881 31.8575C26.837 31.8116 26.8948 31.777 26.9578 31.756C27.1465 31.677 27.3526 31.6515 27.5542 31.6823C27.6069 31.6935 27.6602 31.7028 27.7134 31.7122C27.7498 31.7186 27.7862 31.725 27.8223 31.732C27.8403 31.7332 27.8579 31.7378 27.8742 31.7457C27.9479 31.7886 28.0174 31.8386 28.0819 31.8949C28.0959 31.9089 28.11 31.9228 28.1242 31.9367C28.2325 32.0429 28.3399 32.1482 28.3399 32.3287C28.3429 32.3565 28.3515 32.3833 28.365 32.4075C28.3779 32.4393 28.3933 32.4704 28.4086 32.5014C28.4569 32.5995 28.5053 32.6975 28.4773 32.8174C28.4743 32.8357 28.4778 32.8546 28.4873 32.8705C28.5138 32.9304 28.518 32.998 28.4991 33.0608C28.4607 33.2275 28.377 33.3796 28.2578 33.4998C28.2145 33.5592 28.1676 33.6083 28.1213 33.6567C28.0836 33.6962 28.0462 33.7353 28.0116 33.7793C27.8686 33.9651 27.7037 34.1321 27.5207 34.2765C27.3978 34.3717 27.2855 34.4804 27.1857 34.6006C27.0944 34.7053 27.0152 34.8203 26.9494 34.9435C26.8478 35.1079 26.7757 35.2897 26.7367 35.4802C26.7271 35.558 26.7152 35.6365 26.7034 35.7148C26.6946 35.7727 26.6859 35.8307 26.6781 35.8883C26.6726 35.9108 26.6726 35.9343 26.6781 35.9568C26.6833 35.9703 26.6885 35.9838 26.6937 35.9974C26.748 36.1394 26.8032 36.2838 26.9562 36.3495C26.9728 36.3572 26.988 36.3676 27.0014 36.3804C27.1787 36.5359 27.4082 36.6146 27.6413 36.5998C27.8417 36.5697 28.0403 36.5279 28.2361 36.4747C28.3434 36.4424 28.4491 36.4047 28.5527 36.3615C28.7856 36.2951 29.0104 36.2019 29.2228 36.0837C29.2565 36.0664 29.29 36.0482 29.3234 36.0299C29.3662 36.0065 29.409 35.9832 29.4523 35.962L30.2413 35.5899C30.6034 35.4223 30.9543 35.2304 31.2917 35.0155C31.368 34.9671 31.4402 34.9131 31.5126 34.8588C31.5531 34.8285 31.5937 34.7981 31.6351 34.7686C31.6617 34.7498 31.6892 34.7323 31.7167 34.7148C31.762 34.6859 31.8072 34.657 31.8479 34.6229C31.8892 34.5876 31.9276 34.5487 31.9661 34.5098C32.0212 34.4539 32.0762 34.3981 32.1394 34.3537C32.4373 34.1389 32.7232 33.9071 32.9955 33.6592C33.0644 33.5974 33.1315 33.5341 33.1987 33.4706C33.29 33.3844 33.3815 33.2981 33.4779 33.2151C33.6884 33.0316 33.8678 32.8138 34.009 32.5704C34.0897 32.4431 34.1873 32.3277 34.2988 32.2275C34.3836 32.1438 34.4642 32.0557 34.54 31.9635C34.5774 31.9153 34.6143 31.8662 34.6512 31.8169C34.7236 31.7204 34.7964 31.6233 34.8751 31.5314C35.0384 31.3385 35.2074 31.1484 35.3765 30.9584C35.4328 30.8951 35.4891 30.8318 35.5452 30.7684C35.6909 30.6038 35.8333 30.4426 35.9774 30.2711C36.0513 30.2021 36.1017 30.1108 36.1215 30.0105C36.1283 29.9789 36.1414 29.9491 36.16 29.923C36.2594 29.7596 36.3599 29.5967 36.4616 29.4344C36.5178 29.3444 36.5761 29.253 36.634 29.1622C36.7141 29.0366 36.7933 28.9123 36.8653 28.7948C36.9273 28.6937 36.9842 28.5899 37.0412 28.4862C37.0982 28.3824 37.1551 28.2787 37.2171 28.1775C37.3829 27.901 37.5328 27.6147 37.6661 27.3202C37.7264 27.1913 37.7742 27.0559 37.8221 26.9206C37.8487 26.8454 37.8752 26.7702 37.904 26.6961C37.9161 26.6537 37.9422 26.6167 37.9777 26.5915C38.0346 26.5667 38.0942 26.5487 38.1539 26.5306C38.1891 26.52 38.2243 26.5093 38.2591 26.4972C38.322 26.4751 38.3845 26.4518 38.4469 26.4284C38.559 26.3864 38.6711 26.3445 38.7852 26.3103C38.8195 26.2998 38.8524 26.2829 38.8854 26.266C38.9603 26.2275 39.0355 26.1889 39.1286 26.2246C39.1394 26.2295 39.1555 26.2193 39.1712 26.2094C39.1773 26.2055 39.1833 26.2017 39.1889 26.1989C39.2241 26.1778 39.2604 26.159 39.2978 26.1423C39.677 25.9877 40.0351 25.7837 40.3632 25.5353C40.3893 25.5172 40.4139 25.4972 40.437 25.4753C40.4665 25.4512 40.4872 25.4176 40.4957 25.3799C40.5042 25.3422 40.5 25.3027 40.4839 25.2678C40.4595 25.2368 40.4246 25.2163 40.3862 25.2103C40.3477 25.2043 40.3085 25.2132 40.2761 25.2352C40.2458 25.2508 40.2148 25.2648 40.1808 25.2803C40.1622 25.2887 40.1427 25.2975 40.122 25.3073C40.0918 25.1615 39.993 25.1238 39.8824 25.0998C39.8399 25.0909 39.7988 25.0783 39.7582 25.0659C39.7364 25.0592 39.7148 25.0526 39.6931 25.0466C39.6915 25.0358 39.6915 25.0248 39.6931 25.014C39.6959 25.0037 39.6998 24.9927 39.7038 24.9817C39.7187 24.9399 39.7342 24.8965 39.6931 24.8735C39.6392 24.8552 39.5817 24.8505 39.5256 24.8597C39.5032 24.8639 39.4826 24.8753 39.467 24.8923C39.3559 24.9886 39.228 25.0625 39.09 25.1101C39.0663 25.119 39.0427 25.1289 39.019 25.1388C38.9057 25.1863 38.7915 25.2342 38.6612 25.1718C38.6514 25.1654 38.6425 25.1673 38.6313 25.1697C38.6215 25.1717 38.6098 25.1742 38.5942 25.1718C38.5726 25.1685 38.5517 25.163 38.5262 25.1564C38.512 25.1527 38.4965 25.1486 38.4786 25.1444C38.5271 25.0931 38.5688 25.0354 38.6025 24.9729C38.6208 24.907 38.6315 24.8391 38.6344 24.7706C38.634 24.7666 38.634 24.7626 38.6344 24.7586C38.6719 24.6624 38.7102 24.5665 38.7485 24.4706C38.8318 24.2624 38.915 24.0543 38.9895 23.843C39.0461 23.6706 39.0896 23.4921 39.133 23.3136C39.141 23.2809 39.149 23.2481 39.1571 23.2154C39.1829 23.1122 39.2018 23.007 39.2206 22.9021C39.2262 22.871 39.2317 22.84 39.2375 22.809C39.2842 22.5974 39.32 22.3833 39.3447 22.1678C39.3645 21.901 39.3973 21.6359 39.4303 21.3692L39.4318 21.3567C39.4738 21.0274 39.5029 20.6963 39.5321 20.3647C39.5436 20.2336 39.5552 20.1025 39.5675 19.9713C39.5887 19.8254 39.5994 19.6781 39.5993 19.5307C39.5916 19.3746 39.6001 19.2197 39.6087 19.0647C39.6149 18.9522 39.6211 18.8396 39.6211 18.7265C39.6155 18.6082 39.6174 18.4884 39.6193 18.3707C39.6202 18.3126 39.6211 18.255 39.6211 18.1984C39.6195 18.1799 39.6167 18.1616 39.6127 18.1435C39.6072 18.0961 39.6009 18.0486 39.5947 18.0011C39.584 17.9198 39.5732 17.8383 39.5658 17.756C39.5633 17.5656 39.5162 17.3786 39.4284 17.2108C39.4133 17.1826 39.3927 17.1579 39.368 17.1381C39.3432 17.1184 39.3148 17.104 39.2844 17.0959C39.2311 17.0846 39.1758 17.0875 39.1239 17.1043C39.072 17.1211 39.0251 17.1513 38.9879 17.1919C38.8337 17.2966 38.7113 17.4433 38.6344 17.6154C38.5599 17.7782 38.4983 17.9467 38.4501 18.1195C38.422 18.2546 38.3841 18.3879 38.3461 18.5214C38.332 18.5708 38.3179 18.6203 38.3043 18.6699C38.2968 18.6917 38.2879 18.7129 38.2775 18.7333C38.2265 18.8543 38.1755 18.9741 38.1247 19.0932C38.0537 19.2596 37.9833 19.4248 37.914 19.5907C37.8777 19.6701 37.8459 19.7507 37.8144 19.8308C37.7922 19.8873 37.77 19.9434 37.7465 19.9987C37.6424 20.1903 37.5479 20.3872 37.4634 20.5886C37.3837 20.8008 37.2791 21.0024 37.1518 21.1887C37.0869 21.2997 37.0226 21.4118 36.9582 21.524C36.9112 21.606 36.8641 21.6882 36.8167 21.77C36.8003 21.808 36.7783 21.8433 36.7514 21.8746C36.6036 22.0264 36.4445 22.1662 36.2756 22.2929C36.1867 22.3483 36.1065 22.4171 36.0377 22.497C35.913 22.6242 35.7767 22.7391 35.6306 22.8399C35.5905 22.8728 35.5439 22.896 35.4973 22.9192C35.4078 22.9638 35.3185 23.0083 35.2755 23.1211C35.2694 23.1356 35.2516 23.1445 35.233 23.1538C35.2208 23.1599 35.2083 23.1661 35.1984 23.1742C35.115 23.2276 35.0394 23.2928 34.9739 23.368C34.8289 23.5444 34.642 23.6796 34.4312 23.7607C34.3527 23.7944 34.2785 23.8376 34.21 23.8892C34.1768 23.9117 34.1414 23.9307 34.1045 23.9458C34.1002 23.8709 34.0971 23.8261 34.0921 23.7533L34.0894 23.7144C34.0879 23.6928 34.0866 23.6712 34.0853 23.6497C34.0806 23.5736 34.076 23.4977 34.0643 23.4229C34.052 23.3358 34.018 23.2555 33.9837 23.1747C33.9431 23.0789 33.9022 22.9822 33.8967 22.8725C33.8754 22.7734 33.8398 22.678 33.7912 22.5896C33.7331 22.4544 33.6827 22.3158 33.6404 22.1746C33.5881 21.9724 33.4654 21.7968 33.2953 21.6808C33.1966 21.6076 33.1016 21.5269 33.0155 21.4539C32.9847 21.4277 32.955 21.4025 32.9268 21.379C32.8704 21.3781 32.8143 21.3712 32.7592 21.3585C32.6814 21.3146 32.6001 21.2774 32.5163 21.247C32.452 21.2233 32.3834 21.214 32.3152 21.2196C32.247 21.2252 32.1808 21.2457 32.121 21.2796C32.0977 21.2951 32.0714 21.305 32.0439 21.3087C31.9455 21.3282 31.8578 21.3844 31.7976 21.4665C31.7234 21.5554 31.6452 21.6411 31.561 21.7334C31.5217 21.7764 31.4812 21.8208 31.4391 21.8677C31.3992 21.7939 31.3677 21.7157 31.3453 21.6345C31.3218 21.4978 31.2848 21.364 31.2348 21.235C31.2103 21.1752 31.1896 21.114 31.1728 21.0515C31.1317 20.8799 31.0608 20.7173 30.9634 20.5714C30.9067 20.4779 30.8441 20.3844 30.7814 20.2908C30.7292 20.2129 30.677 20.135 30.6283 20.057C30.5796 19.9734 30.5088 19.9056 30.4239 19.8616C30.3443 19.8205 30.2607 19.7883 30.1743 19.7656C30.1043 19.7388 30.0288 19.7304 29.9547 19.7412C29.8807 19.7519 29.8105 19.7815 29.7505 19.8273C29.7213 19.8491 29.6891 19.8664 29.655 19.8787C29.5148 19.9353 29.3913 20.0281 29.2965 20.1479C29.1868 20.251 29.1064 20.3826 29.0636 20.5286C29.0466 20.5861 29.0218 20.641 28.9899 20.6915C28.9728 20.7187 28.9593 20.7481 28.9497 20.7789C28.9089 21.0121 28.8267 21.2323 28.7445 21.4524C28.675 21.6385 28.6056 21.8246 28.561 22.0186C28.5294 22.1139 28.5064 22.2121 28.4924 22.3118C28.489 22.3667 28.4739 22.4438 28.3868 22.4438C28.368 22.4139 28.3518 22.3823 28.3382 22.3495C28.2963 22.236 28.2285 22.1343 28.1406 22.0529C28.1188 22.0306 28.0994 22.0064 28.0801 21.9823C28.0592 21.9562 28.0384 21.9303 28.0149 21.9071C27.964 21.8544 27.9079 21.8073 27.8474 21.7665C27.7033 21.6722 27.5542 21.5865 27.4051 21.5008C27.3621 21.4771 27.3147 21.4631 27.2661 21.4596H26.9846C27.0276 21.3223 27.0837 21.1896 27.1522 21.0635C27.2402 20.9088 27.3575 20.7736 27.4973 20.6657C27.5977 20.5879 27.6888 20.4981 27.7687 20.3983C27.864 20.2963 27.9561 20.1902 28.0494 20.0826C28.1036 20.0201 28.1583 19.9571 28.2143 19.8942C28.3362 19.7571 28.4665 19.6283 28.6046 19.5084C28.991 19.1928 29.3492 18.8428 29.6751 18.4624C29.7614 18.3614 29.8414 18.2549 29.9147 18.1435C30.0044 18.0044 30.0871 17.8608 30.1626 17.7131C30.1881 17.6537 30.2012 17.5895 30.2011 17.5245C30.2077 17.4332 30.2077 17.3415 30.2011 17.2502C30.2022 17.2058 30.1934 17.1618 30.1754 17.1214C30.1574 17.081 30.1307 17.0453 30.0973 17.017C30.0181 16.9585 29.9409 16.899 29.8696 16.8441C29.8489 16.8281 29.8287 16.8126 29.8091 16.7975C29.8035 16.7505 29.7981 16.7045 29.7928 16.6591C29.7792 16.5422 29.7662 16.4298 29.7505 16.3174C29.7248 16.2051 29.6738 16.1006 29.6014 16.0122C29.5321 15.9276 29.4418 15.8636 29.34 15.827C29.2813 15.7906 29.2113 15.7784 29.144 15.7928C29.0871 15.8082 29.0268 15.8133 28.9882 15.755C29.0015 15.699 29.0055 15.641 29 15.5836C28.9669 15.4775 28.9231 15.3752 28.8693 15.2784C28.8375 15.2223 28.7926 15.1751 28.7386 15.1412C28.6842 15.1031 28.6258 15.0746 28.568 15.0463C28.5191 15.0225 28.4706 14.9988 28.4254 14.9697C28.3399 14.9168 28.2431 14.8857 28.1434 14.8791C28.0437 14.8725 27.9438 14.8907 27.8524 14.932C27.8133 14.9461 27.7734 14.9574 27.7296 14.9699C27.704 14.9772 27.677 14.9849 27.648 14.9937C27.6463 14.9505 27.6503 14.9073 27.6598 14.8651C27.6894 14.7957 27.6814 14.7251 27.6734 14.6547C27.6674 14.6017 27.6614 14.5488 27.6715 14.4965C27.6738 14.4808 27.6621 14.4617 27.6509 14.4435C27.6461 14.4357 27.6415 14.4282 27.638 14.421L27.5458 14.2376C27.4907 14.2264 27.4344 14.2224 27.3783 14.2256C27.3089 14.2436 27.2407 14.2659 27.1739 14.2924C26.9896 14.3251 26.8188 14.4128 26.6831 14.5445C26.6575 14.5712 26.6282 14.5937 26.596 14.6114C26.3812 14.7319 26.1917 14.8945 26.0381 15.0898C26.0274 15.1034 26.0144 15.1152 26.0015 15.1268C25.9901 15.137 25.9788 15.1471 25.9694 15.1583C25.9168 15.2226 25.8508 15.2732 25.7847 15.3239C25.6868 15.3989 25.5889 15.4741 25.5339 15.5939C25.5308 15.6002 25.5277 15.6014 25.5224 15.6035C25.5161 15.6061 25.5066 15.6099 25.4903 15.6247C25.4601 15.6522 25.43 15.6813 25.4015 15.7104C25.3736 15.7407 25.3459 15.7701 25.3181 15.7994C25.2627 15.8581 25.2072 15.9168 25.1502 15.9831C25.0648 16.0825 24.9844 16.1803 24.9056 16.2934C24.8729 16.3405 24.8453 16.3897 24.8179 16.4386C24.7795 16.5072 24.7414 16.5753 24.6895 16.6363C24.5825 16.7779 24.4835 16.9256 24.393 17.0787C24.3303 17.1713 24.2649 17.2622 24.1995 17.3532C24.174 17.3885 24.1486 17.4239 24.1233 17.4594C24.1164 17.4715 24.1066 17.4815 24.0948 17.4885C24.0259 17.5167 24.0004 17.5794 23.9747 17.6423C23.9723 17.6482 23.9699 17.6541 23.9675 17.66C23.9515 17.7084 23.9296 17.7545 23.9022 17.7972C23.8737 17.8302 23.8521 17.8688 23.8389 17.9107ZM22.1463 37.7172C22.1197 37.7021 22.099 37.6781 22.0879 37.6492C21.9723 37.6843 21.8504 37.6918 21.7316 37.6709C21.6128 37.6501 21.5002 37.6016 21.4027 37.5292C21.2909 37.4387 21.1852 37.3407 21.0861 37.236C21.0714 37.2185 21.0621 37.197 21.0592 37.1742C21.0358 37.0715 20.998 36.9727 20.947 36.881C20.8671 36.7152 20.8324 36.5304 20.8465 36.3461C20.8532 36.2726 20.8452 36.1985 20.823 36.1283C20.8045 36.0615 20.7972 35.9919 20.8013 35.9225C20.7979 35.854 20.7611 35.7957 20.7074 35.7905C20.6538 35.7854 20.6388 35.7562 20.6237 35.7168C20.5384 35.518 20.4387 35.326 20.3255 35.1424C20.287 35.0764 20.2545 35.0069 20.2283 34.9349C20.1686 34.8091 20.0765 34.7024 19.962 34.6263C19.9137 34.5849 19.8635 34.5457 19.8132 34.5063C19.7342 34.4446 19.655 34.3827 19.5833 34.3125C19.4545 34.1969 19.3551 34.0509 19.2935 33.8873C19.2709 33.8196 19.2445 33.7535 19.2181 33.6875C19.1918 33.6215 19.1654 33.5555 19.1428 33.4878C19.1171 33.3993 19.0964 33.3095 19.0808 33.2186C19.0598 33.1191 19.0393 33.0201 19.0188 32.9211C18.9983 32.8221 18.9777 32.723 18.9568 32.6236C18.9283 32.483 18.8982 32.3441 18.8663 32.2052C18.8529 32.1709 18.8467 32.1341 18.8481 32.0971C18.8496 32.0602 18.8586 32.024 18.8747 31.9909C18.9484 31.8407 18.9825 31.6735 18.9736 31.5057C18.9697 31.2895 18.937 31.0749 18.8764 30.8678C18.8343 30.6841 18.8068 30.4971 18.7943 30.3088C18.7928 30.1842 18.8023 30.0597 18.8228 29.9368C18.8462 29.7156 18.8714 29.4944 18.8998 29.2749C18.9149 29.16 18.935 29.0452 18.9568 28.932C18.9712 28.8583 18.987 28.7867 19.0029 28.7145C19.0221 28.6272 19.0416 28.5389 19.059 28.445C19.1278 28.1192 19.2305 27.8019 19.3656 27.4986C19.3817 27.466 19.3935 27.4314 19.4007 27.3957C19.4269 27.2312 19.4838 27.0735 19.5683 26.931C19.6175 26.841 19.6627 26.7476 19.7077 26.6544C19.7271 26.6144 19.7464 26.5745 19.766 26.5349C19.7814 26.5117 19.7896 26.4842 19.7894 26.4561C19.757 26.34 19.8108 26.2495 19.8633 26.1614C19.8813 26.131 19.8992 26.101 19.9134 26.0703C20.0172 25.8456 20.1278 25.6382 20.2585 25.4118C20.3531 25.2479 20.4565 25.0894 20.5598 24.9311C20.5991 24.8708 20.6385 24.8105 20.6773 24.75C20.6926 24.7261 20.7081 24.7022 20.7236 24.6783C20.7726 24.6026 20.822 24.5264 20.8666 24.4482C20.8779 24.4297 20.8804 24.4107 20.8831 24.3902C20.8863 24.3653 20.8899 24.3379 20.9102 24.3059C20.9288 24.2765 20.9521 24.2488 20.9757 24.2206C20.999 24.193 21.0226 24.165 21.0425 24.1344C21.1296 23.9984 21.2134 23.8607 21.2938 23.7212C21.4408 23.4609 21.6143 23.2172 21.8114 22.9942C21.8826 22.9069 21.9486 22.8152 22.0091 22.7199C22.1191 22.5509 22.2478 22.3955 22.3928 22.2569C22.497 22.1413 22.5944 22.0194 22.6842 21.8917C22.785 21.7747 22.8912 21.6623 22.9975 21.5498C23.0361 21.509 23.0747 21.4681 23.1131 21.427C23.1377 21.4006 23.1622 21.3741 23.1867 21.3476C23.2588 21.2696 23.3308 21.1918 23.4046 21.115C23.5025 21.0135 23.6013 20.914 23.7003 20.8142C23.7335 20.7808 23.7668 20.7473 23.8 20.7138C23.8301 20.6846 23.8586 20.6555 23.8854 20.6246C23.9472 20.5515 24.0081 20.4809 24.0689 20.4103C24.1979 20.2606 24.3268 20.1112 24.4634 19.9387C24.6075 19.7568 24.7696 19.5987 24.9314 19.441C24.9953 19.3787 25.0591 19.3165 25.1217 19.2529C25.3772 18.9869 25.6578 18.7474 25.9594 18.5379C26.0867 18.4504 26.2157 18.363 26.3447 18.279C26.3562 18.2713 26.3672 18.2685 26.3791 18.2654C26.3966 18.2608 26.4159 18.2558 26.4418 18.2344C26.4457 18.2312 26.4496 18.228 26.4537 18.2246C26.4966 18.1895 26.5524 18.1438 26.5524 18.1109C26.5362 18.0055 26.5989 17.9663 26.6597 17.9281C26.6682 17.9228 26.6766 17.9175 26.6848 17.912C26.839 17.8278 26.9874 17.7327 27.1287 17.6274C27.2315 17.5614 27.33 17.4887 27.4236 17.4096C27.4442 17.3855 27.4733 17.3706 27.5046 17.368C27.5359 17.3655 27.5669 17.3755 27.5911 17.3959C27.6396 17.4302 27.6883 17.4645 27.7368 17.4954C27.7617 17.5058 27.7825 17.5245 27.7959 17.5484C27.8093 17.5723 27.8144 17.6001 27.8105 17.6274C27.8103 17.6463 27.8169 17.6646 27.829 17.6788C27.858 17.7207 27.8737 17.7707 27.8737 17.822C27.8737 17.8733 27.858 17.9234 27.829 17.9652L27.8206 17.9755C27.812 18.094 27.7831 18.2101 27.7351 18.3184C27.6983 18.3664 27.8005 18.4247 27.8658 18.4059C27.8901 18.3989 27.9141 18.3909 27.9381 18.383C27.9786 18.3695 28.0191 18.3562 28.0601 18.3476C28.0953 18.3355 28.1336 18.3381 28.1668 18.3548C28.2001 18.3715 28.2255 18.4009 28.2377 18.4367C28.2829 18.5124 28.3082 18.5987 28.3111 18.6874C28.314 18.776 28.2945 18.8639 28.2545 18.9425C28.2087 19.0369 28.1689 19.1343 28.1355 19.234C28.0986 19.3286 28.0471 19.4166 27.9831 19.4946C27.9419 19.5503 27.9107 19.613 27.8909 19.6798C27.8533 19.8159 27.774 19.9361 27.6648 20.0228C27.6254 20.0611 27.5916 20.105 27.5643 20.1531C27.4196 20.3297 27.288 20.5171 27.1706 20.7138C27.0685 20.7776 27.0372 20.8807 27.0057 20.9846C26.9999 21.0035 26.9942 21.0225 26.988 21.0412C26.9389 21.1893 26.8868 21.3363 26.8349 21.4831C26.8194 21.5267 26.804 21.5703 26.7886 21.6139C26.779 21.6495 26.7673 21.6844 26.7534 21.7185C26.7487 21.7281 26.7438 21.7377 26.7389 21.7472C26.6925 21.8384 26.6463 21.9291 26.6948 22.0409C26.7052 22.0673 26.7052 22.0968 26.6948 22.1232C26.6632 22.2045 26.65 22.2921 26.6561 22.3793C26.6622 22.4666 26.6874 22.5514 26.73 22.6273C26.8334 22.8432 27.002 23.0194 27.2108 23.1297C27.3978 23.2253 27.6033 23.2768 27.8122 23.2806C27.8393 23.288 27.8693 23.2884 27.9002 23.2888C27.9265 23.2892 27.9535 23.2895 27.9797 23.2943C28.2364 23.3291 28.4975 23.2966 28.7386 23.2C28.8546 23.1665 28.9727 23.1413 29.0921 23.1245C29.1187 23.1193 29.1456 23.1149 29.1727 23.1105C29.2257 23.1017 29.2789 23.093 29.33 23.0782C29.4139 23.0595 29.5007 23.0595 29.5846 23.0782C29.757 23.1086 29.931 23.1281 30.1056 23.1365C30.1667 23.1326 30.2275 23.1467 30.2809 23.1771C30.3344 23.2075 30.3782 23.2529 30.4072 23.308C30.478 23.4236 30.5103 23.5595 30.4993 23.6955C30.4781 23.8128 30.4455 23.9277 30.4022 24.0384C30.3941 24.0577 30.3819 24.075 30.3666 24.0889C30.3512 24.1028 30.3331 24.1131 30.3134 24.119C30.1717 24.1696 30.0344 24.2321 29.9029 24.3059C29.8242 24.3331 29.7504 24.3741 29.6765 24.4152C29.6151 24.4493 29.5537 24.4835 29.4891 24.5099C29.349 24.5719 29.2164 24.6501 29.0938 24.7431C29.065 24.7615 29.0371 24.7797 29.0095 24.7976C28.9521 24.8349 28.8963 24.8713 28.8375 24.906C28.6781 25.0031 28.5414 25.1348 28.4371 25.2918C28.4236 25.3119 28.4113 25.3336 28.3989 25.3555C28.3603 25.4237 28.3201 25.4947 28.2377 25.5284C28.2225 25.5343 28.2148 25.5579 28.2067 25.5829C28.2006 25.6018 28.1942 25.6214 28.1841 25.6347C28.063 25.8241 27.9783 26.0353 27.9345 26.2572C27.8909 26.4539 27.8791 26.6566 27.8993 26.8573C27.9127 27.0191 27.9077 27.1819 27.8842 27.3425C27.8639 27.4799 27.8527 27.6185 27.8507 27.7575C27.8471 27.8147 27.8442 27.8706 27.8412 27.9265C27.8345 28.0531 27.8278 28.1795 27.8139 28.3199C27.7938 28.5222 27.7653 28.7245 27.7335 28.9251C27.7179 29.0255 27.6955 29.1246 27.6665 29.2218C27.6021 29.4351 27.536 29.6476 27.47 29.8599C27.4416 29.9513 27.4133 30.0426 27.385 30.1339C27.3784 30.1656 27.3677 30.1961 27.3532 30.2248C27.2892 30.3505 27.2434 30.4851 27.2175 30.6243C27.2109 30.656 27.2013 30.687 27.189 30.7169C27.1004 30.9198 26.9986 31.1162 26.8841 31.305C26.7654 31.4967 26.635 31.6805 26.4938 31.8554C26.484 31.8653 26.477 31.8778 26.4737 31.8914C26.4542 31.9963 26.404 32.0926 26.3296 32.1675C26.2701 32.2425 26.2211 32.3256 26.1839 32.4144C26.1424 32.4974 26.1016 32.5808 26.0608 32.6643C25.9946 32.8 25.9283 32.9357 25.8589 33.0694C25.8149 33.1553 25.7615 33.2359 25.6997 33.3094C25.6334 33.3834 25.5654 33.4537 25.498 33.5233C25.453 33.5698 25.4083 33.6159 25.3647 33.6627C25.3356 33.6915 25.3092 33.7231 25.2859 33.757C25.1768 33.937 25.0231 34.0844 24.8403 34.1839C24.7973 34.2581 24.7304 34.3093 24.6637 34.3604C24.5823 34.4227 24.5011 34.4849 24.4634 34.5886C24.4397 34.6549 24.4234 34.7185 24.407 34.7827C24.4013 34.8047 24.3957 34.8268 24.3897 34.8492C24.386 34.8624 24.3835 34.8768 24.381 34.8912C24.3754 34.9236 24.3697 34.9564 24.3511 34.9778C24.2988 35.0373 24.2626 35.1071 24.2263 35.177C24.1789 35.2683 24.1314 35.3598 24.0479 35.4287C24.0018 35.4838 23.979 35.5553 23.9842 35.6276C23.9822 35.8637 23.9489 36.0985 23.8854 36.3255C23.8747 36.3655 23.8664 36.4062 23.8603 36.4472C23.8586 36.4563 23.8579 36.466 23.8571 36.4756C23.8556 36.495 23.8542 36.5141 23.8452 36.5278C23.829 36.5502 23.8128 36.5726 23.7966 36.5951C23.7121 36.7123 23.6269 36.8306 23.537 36.9428C23.4661 37.0353 23.3852 37.1193 23.2957 37.1931C23.2177 37.2637 23.123 37.3122 23.021 37.3337C22.8891 37.364 22.7679 37.4311 22.6708 37.5274C22.5471 37.6367 22.3954 37.7075 22.2336 37.7315C22.2037 37.7373 22.1729 37.7322 22.1463 37.7172ZM20.991 47.4174C20.9543 47.3997 20.9138 47.392 20.8733 47.3952V47.3866C20.8267 47.2078 20.7909 47.0263 20.7661 46.8431C20.7499 46.6528 20.7704 46.4611 20.8264 46.2789C20.8509 46.2061 20.8673 46.1283 20.8846 46.0461C20.8921 46.0102 20.8998 45.9735 20.9085 45.936C21.0412 45.9415 21.1708 45.9785 21.2871 46.044C21.3949 46.1129 21.5242 46.1374 21.6489 46.1126C21.7008 46.1044 21.7527 46.104 21.8056 46.1035C21.8518 46.1032 21.8987 46.1028 21.9471 46.0972C22.0164 46.0892 22.0841 46.0751 22.1519 46.061C22.1858 46.0539 22.2196 46.0469 22.2537 46.0406C22.4245 46.0145 22.5875 45.9501 22.7312 45.852C22.8142 45.8025 22.8786 45.7258 22.9138 45.6342C22.9282 45.6025 22.9462 45.5725 22.9674 45.5451C23.155 45.5999 23.1986 45.6771 23.155 45.8623C23.1499 45.8848 23.1465 45.9078 23.1449 45.9309C23.1303 46.1552 23.0319 46.3651 22.8702 46.5173C22.843 46.548 22.8225 46.5842 22.8099 46.6236C22.6912 46.909 22.4879 47.1489 22.2286 47.3094C22.1434 47.3701 22.0525 47.4218 21.9572 47.4637C21.8474 47.5052 21.7356 47.5407 21.6221 47.5701C21.6099 47.5767 21.5937 47.5765 21.5791 47.5763C21.5637 47.5761 21.5502 47.5759 21.5451 47.5838C21.5015 47.6558 21.4362 47.6421 21.3775 47.6232C21.3506 47.6146 21.3224 47.6085 21.2941 47.6024C21.2151 47.5854 21.1357 47.5683 21.0827 47.4963C21.0593 47.4624 21.0278 47.4352 20.991 47.4174ZM17.7836 22.0492C17.7455 22.0791 17.7063 22.1101 17.6652 22.142C17.675 22.0757 17.6901 22.0103 17.7104 21.9466C17.8186 21.68 17.9011 21.4032 17.9567 21.1201C17.9648 21.0649 17.9806 21.0112 18.0036 20.9607C18.0904 20.7721 18.1546 20.5735 18.1946 20.3691L18.3621 19.8101C18.3778 19.8408 18.3919 19.8693 18.4051 19.896C18.4354 19.9575 18.4612 20.0098 18.4928 20.0588C18.5958 20.2491 18.7263 20.4225 18.8797 20.5732C18.9344 20.6216 19.0001 20.6552 19.0707 20.6709C19.1327 20.6852 19.1937 20.7035 19.2533 20.7258C19.3222 20.7511 19.3796 20.8014 19.4148 20.8671C19.45 20.9327 19.4605 21.0093 19.4443 21.0824C19.4311 21.1102 19.4085 21.1322 19.3806 21.1441C19.2751 21.199 19.1696 21.2521 19.0607 21.2967C18.9831 21.3328 18.9006 21.3565 18.8161 21.367C18.7187 21.3768 18.6549 21.4279 18.5915 21.4788C18.5654 21.4997 18.5394 21.5205 18.5112 21.5385C18.5039 21.5435 18.4986 21.5512 18.4933 21.5589C18.4877 21.5671 18.4821 21.5752 18.4743 21.5796C18.4344 21.604 18.3941 21.6275 18.354 21.6509C18.2728 21.6982 18.192 21.7452 18.1158 21.7991C18.0058 21.8742 17.9006 21.957 17.7836 22.0492ZM17.1827 19.9525H17.1626V18.8277C17.1626 18.7128 17.2028 18.6905 17.2933 18.7008C17.3837 18.7111 17.4323 18.6853 17.5513 18.5636L17.697 18.5859C17.7012 18.6241 17.7066 18.6624 17.7119 18.7009C17.7237 18.7851 17.7355 18.8698 17.7355 18.9545C17.7355 18.9855 17.7157 19.0174 17.6965 19.0481C17.6902 19.0582 17.684 19.0682 17.6786 19.078L17.3 19.7381C17.2598 19.8084 17.2212 19.8805 17.1827 19.9525ZM16.4355 14.9519C16.4604 14.9403 16.4805 14.9201 16.4923 14.8948C16.5043 14.869 16.5068 14.8395 16.4992 14.812C16.4901 14.7553 16.4873 14.6978 16.4908 14.6405C16.4989 14.5259 16.4927 14.4106 16.4724 14.2976C16.429 14.5127 16.4166 14.7331 16.4355 14.9519ZM22.9388 47.0711C22.9261 47.0655 22.9125 47.0626 22.8987 47.0625C22.8655 47.0695 22.8362 47.0891 22.8166 47.1174C22.8013 47.162 22.7939 47.209 22.7948 47.2563C22.7966 47.3457 22.8101 47.4346 22.835 47.5203C22.8491 47.5462 22.87 47.5676 22.8953 47.5821C22.9185 47.5913 22.9442 47.5913 22.9674 47.5821C22.9926 47.5622 23.0099 47.5335 23.0159 47.5015C23.0099 47.4278 22.9998 47.3545 22.9858 47.282C22.994 47.2194 22.9894 47.1558 22.9724 47.0951C22.9629 47.0849 22.9515 47.0767 22.9388 47.0711Z" fill="black"/>
</svg>
