<svg width="24" height="24" viewBox="0 0 24 24" fill="#FFC29F" xmlns="http://www.w3.org/2000/svg">
<path d="M23.5 7.5L22 6.5L19.5898 9.95692L15.9938 7.46836L15 9L20 12.5L23.5 7.5Z" fill="#FFC29F"/>
<path d="M19.6719 17C17.9429 19.989 14.7112 22 11.0098 22C5.48692 22 1.00977 17.5228 1.00977 12C1.00977 6.47715 5.48692 2 11.0098 2C15.8477 2 19.8832 5.43552 20.8097 10H18.7577C17.8696 6.54955 14.7374 4 11.0098 4C6.59149 4 3.00977 7.58172 3.00977 12C3.00977 16.4183 6.59149 20 11.0098 20C13.5361 20 15.789 18.8289 17.2551 17H19.6719Z" fill="#FFC29F"/>
</svg>
